<svg xmlns="http://www.w3.org/2000/svg" xmlns:xlink="http://www.w3.org/1999/xlink" width="291" height="270" viewBox="0 0 291 270">
  <defs>
    <clipPath id="clip-path">
      <rect id="Rectangle_1516" data-name="Rectangle 1516" width="291" height="270" transform="translate(1629 810)" fill="#fff" stroke="#707070" stroke-width="1"/>
    </clipPath>
  </defs>
  <g id="Mask_Group_9" data-name="Mask Group 9" transform="translate(-1629 -810)" clip-path="url(#clip-path)">
    <g id="Group_18" data-name="Group 18" transform="translate(1280.201 709.708)" opacity="0.3">
      <path id="Path_71" data-name="Path 71" d="M482.316,249.863s-46.911,35.6-42.271,54.573,16.572,32.133,20.058,29.94S497.6,287.675,482.316,249.863Z" transform="translate(184.357 267.245)" fill="#d1ccbd"/>
      <path id="Path_72" data-name="Path 72" d="M530.94,227.5s-20.285,55.016-42.3,60.986c-19.2,5.21-26.154,10.1-26.311,3.975s2.659-43.459,24.9-59.122C503.9,221.592,537.321,218.848,530.94,227.5Z" transform="translate(227.579 214.79)" fill="#d1ccbd"/>
      <path id="Path_73" data-name="Path 73" d="M408.1,257.829c7.994-2.452,29.468-10.383,46.523-5.1,11.673,3.617,30.394,16,33.2,18.182a.566.566,0,0,1,.1.8c-2.216,2.8-14.7,12.7-35.98,13.822C434.329,286.464,401.147,259.961,408.1,257.829Z" transform="translate(122.077 269.321)" fill="#d1ccbd"/>
      <path id="Path_74" data-name="Path 74" d="M485.618,293.026c-8.181,1.162-37.923-2.95-54.62-24.805-15.864-20.766-17.262-42.466-17.262-42.466s51.495-1.139,62.247,19.231S494.972,291.695,485.618,293.026Z" transform="translate(134.66 221.117)" fill="#d1ccbd"/>
      <path id="Path_75" data-name="Path 75" d="M459.554,286.435c-4.724-3.195-18.028-19.068-16.449-37.975a59.562,59.562,0,0,1,10.834-29.71S480.8,242.009,476.872,257.4,464.954,290.087,459.554,286.435Z" transform="translate(190.579 207.744)" fill="#d1ccbd"/>
      <path id="Path_76" data-name="Path 76" d="M474.443,263.224c-5.566-3.76-21.237-22.458-19.376-44.732a70.143,70.143,0,0,1,12.762-35s31.641,27.4,27.01,45.533S480.8,267.525,474.443,263.224Z" transform="translate(213.409 140.323)" fill="#d1ccbd"/>
      <path id="Path_77" data-name="Path 77" d="M426.613,210.47s1.75,34.046,12.337,38.007,20.774,2.54,20.859.157S449.682,215.479,426.613,210.47Z" transform="translate(159.286 191.909)" fill="#d1ccbd"/>
      <path id="Path_78" data-name="Path 78" d="M549.044,252.692c-3.18-1.992-29.448,38.569-31.282,35.214-.987-1.838-.661-55.674-5.991-43.18-2.085,4.907-9.893,45.518-9.893,45.518-1.9,0-10-19.394-10.994-20.533-.65-.746-6.134-8.836-6.571-9.978-1.238-3.244-3.413.218-2.516,4.013,8.959,38.062-.463,54.328,19.857,58.694.166,3.987.431,7.473.769,10.534a28.478,28.478,0,0,0-7.016-6.911c-10.365-6.646-26.494-1.447-29.037-.335s.7,3.189,6.163,10.351c5.5,7.2,26.6,7.395,31.679,7.334,2.2,8.565,5.184,9.894,6.795,8.283,1.337-1.337,1.771-5.333,1.814-16.656.064-14.492-.236-11.4,5.164-14.012C534.829,312.907,553.209,255.3,549.044,252.692Z" transform="translate(233.633 253.829)" fill="#d1ccbd"/>
      <path id="Path_79" data-name="Path 79" d="M476.676,198.046c6.2,1.124,23.308,3.247,32.89,12.681,6.559,6.457,14.8,21.217,15.919,23.649a.424.424,0,0,1-.213.571c-2.452,1.107-14.224,3.413-28.853-3.2C484.319,226.276,471.288,197.067,476.676,198.046Z" transform="translate(252.637 168.102)" fill="#d1ccbd"/>
      <path id="Path_80" data-name="Path 80" d="M440.913,245.666c-2.28-4.506-5.737-22.53,3.638-36.487a52.775,52.775,0,0,1,21.194-18.334s10.77,29.587,1.089,39.813S443.52,250.824,440.913,245.666Z" transform="translate(181.753 154.377)" fill="#d1ccbd"/>
      <path id="Path_81" data-name="Path 81" d="M458.48,240.384c.154-3.559,4.249-15.835,14.83-21.179a37.215,37.215,0,0,1,19.359-3.955S489.078,237.157,479.6,240.1,458.3,244.452,458.48,240.384Z" transform="translate(220.226 200.847)" fill="#d1ccbd"/>
      <path id="Path_82" data-name="Path 82" d="M636.214,172.087c-1.226-15.919-19.595-14.693-33.065-14.693s-20.818,2.449-33.065-2.449-2.449-28.166-9.8-40.413-131.033,4.9-131.033,4.9c1.223,3.673,20.818,22.044,33.065,30.615s24.491,19.595,14.7,23.267-108.992,11.021-113.89,12.247-13.47,51.433-12.247,57.555,60.008-23.267,83.275-24.491,25.717,25.717,28.166,34.288,8.571,9.8,8.571,9.8l122.462-63.68c30.615-15.919,40.413-4.9,40.413-4.9S637.437,188.01,636.214,172.087Zm-66.13,24.494s-13.47-15.919-17.146-15.919-23.267,33.065-28.166,35.514-20.818-12.247-28.166-15.922-25.717,31.842-25.717,31.842-6.122-4.9-8.571-11.021,26.94-40.413,33.065-39.19,25.717,14.7,28.166,14.7,20.818-26.94,28.166-33.065,28.166,22.044,30.615,24.494Z" transform="translate(14.222 0)" fill="#d1ccbd"/>
      <path id="Path_83" data-name="Path 83" d="M426.283,179.832s7.2-3.839,20.035,10.3l51.329,56.58s3.413.542,6.332-3.437,9.366-17.492,21.205-12.387,36.708,31.652,38.52,28.708,7.007-30.65,4.7-32.226-52.383-24.447-56.76-28.236,4.092-7.156,12.1-9.253,21.7-7.866,23.046-9.538c0,0-60.908-32.663-67.073-27.718s-5.551,18.9-12.85,19.094-10.639-2.493-17.632-5.079-16.292-6.754-19.985,1.276S426.283,179.832,426.283,179.832Z" transform="translate(158.542 80.319)" fill="#d1ccbd"/>
      <path id="Path_84" data-name="Path 84" d="M431.243,173.922s-3.935-18.68-33.429-16.714-26.544,28.513-28.51,39.327c-1.41,7.738-6.882,41.292-8.851,70.786s-3.932,69.8-3.932,72.752,1.966,4.916,4.916,0,12.78-30.479,15.73-39.327S390.932,262.4,392.9,267.32s-3.932,35.392-6.882,54.072a230.833,230.833,0,0,0-2.947,32.444s12.78-8.848,19.662-1.966,11.8,3.932,12.78,2.95,0-82.585.984-85.535,4.916.984,5.9,5.9,17.7,65.873,23.6,73.737l3.247,4.331a1.586,1.586,0,0,0,2.854-.88c.5-11.426,1.765-43.113,1.765-72.272,0-36.376-1.188-77.776-15.73-85.532-14.749-7.866-26.547-7.866-26.547-7.866s-2.5-10,4.916-12.78A21.4,21.4,0,0,1,431.243,173.922Z" transform="translate(25.242 89.77)" fill="#d1ccbd"/>
      <path id="Path_85" data-name="Path 85" d="M449.193,123.379l46.229,57.474s-32.211,23.835-36.234,28.737c-4.133,5.041,8.711,14.938,11.245,18.741,5,7.5,29.986-24.989,36.234-21.24s29.986,38.732,32.485,36.234,32.485-11.245,18.741-24.989S526.658,194.6,534.154,187.1s31.236,3.748,32.485-7.5,5-22.49-5-21.24-42.481,16.243-36.234,6.247,23.739-37.483,14.993-42.481-16.243-18.741-19.991-1.249-6.247,34.984-22.49,21.24-11.245-22.49-23.739-22.49S449.193,119.631,449.193,123.379Z" transform="translate(202.469 4.101)" fill="#d1ccbd"/>
      <path id="Path_86" data-name="Path 86" d="M398.327,341.382s2.741-20.751,18.267-23.343,17.355-8.647,17.355-8.647l-1.829-10.377s-21,.865-30.138,8.647l-9.133,7.782s5.478-19.021,16.441-24.208,19.178-7.782,20.093-12.972,1.826-13.831,1.826-13.831-19.181,6.052-26.486,12.969-7.307,9.509-7.307,6.917,2.741-15.564,15.526-22.481,13.7-3.46,13.7-3.46l3.652-16.426s-29.226,4.322-35.619,26.8c-.751,2.639,4.567-22.481-.915-25.073s-11.871,0-11.871,1.727,2.741,26.8-.915,23.346-2.741-9.512-11.874-16.429a61.735,61.735,0,0,0-18.267-9.509s-8.219,12.969-.912,14.7,26.486,13.834,28.312,23.343,1.829,11.239,1.829,11.239-10.962-12.1-18.267-14.7-10.048-1.73-10.048-1.73-2.741,14.7.914,14.7,24.659,9.509,27.4,16.426,4.567,12.1,4.567,12.1a33.755,33.755,0,0,0-18.267-15.561c-12.788-4.325-17.355-1.73-17.355-1.73s-3.652,13.834,1.826,15.564,25.574,3.457,26.489,13.834S393.761,341.382,398.327,341.382Z" transform="translate(6.833 252.116)" fill="#d1ccbd"/>
      <g id="Group_17" data-name="Group 17" transform="translate(343.323 239.178)">
        <path id="Path_87" data-name="Path 87" d="M582.792,188.481c2.426-3.641-6.069-13.351-12.136-9.71s-10.925,13.351-24.272,27.916-14.565,21.843-20.632,25.487-4.855-40.052-7.284-49.759-2.426-19.42-8.5-18.206-9.707,13.351-7.281,23.058,10.922,59.469,7.281,111.654-9.707,101.947-9.707,108.013-14.929-9.553-21.377-14.524c-10.971-8.455-65.311-42.944-65.311-42.944-6.53-4.535-27.916-14.565-32.768-15.777s-24.616,16.368-33.111,24.863-2.426,18.206,0,16.991,25.487-21.846,30.342-25.487,50.72,28.667,67.74,40.48c11.367,7.89,38.706,24.893,44.776,39.458s2.426,37.623,0,48.544,6.069,18.206,10.922,20.632,7.284-6.07,7.284-10.922,3.641-31.556,2.426-44.907,7.281-69.176,8.5-92.234,6.069-84.956,8.5-94.663,10.922-19.42,19.417-31.556S575.761,199.024,582.792,188.481Z" transform="translate(-343.323 -135.938)" fill="#d1ccbd"/>
        <path id="Path_88" data-name="Path 88" d="M415.049,218.373c3.411-2.275,22.737-18.188,22.737-36.376,0-13.642-11.37-32.969-13.642-26.148,0,0-22.266,32.275-17.052,46.608C411.639,214.963,411.639,220.648,415.049,218.373Z" transform="translate(-222.881 -154.434)" fill="#d1ccbd"/>
        <path id="Path_89" data-name="Path 89" d="M462.816,184.256s-43.593,17.533-47.863,35.3c-3.722,15.5-7.482,21.185-2.569,21.168s34.748-3.143,46.773-21.322C468.178,205.773,469.6,178.944,462.816,184.256Z" transform="translate(-215.734 -98.715)" fill="#d1ccbd"/>
        <path id="Path_90" data-name="Path 90" d="M436.153,210.559c-12.526-3.48-28.041-4.852-27.651.469.344,4.651,6.189,20.556,20.25,27.135a48.717,48.717,0,0,0,25.493,4.409S448.68,214.039,436.153,210.559Z" transform="translate(-218.685 -52.979)" fill="#d1ccbd"/>
        <path id="Path_91" data-name="Path 91" d="M408.364,273.148c2.208-3.469,6.448-17.795-.032-29.852a42.957,42.957,0,0,0-15.707-16.545s-11.09,23.11-4.063,32.168S405.839,277.117,408.364,273.148Z" transform="translate(-261.266 -16.135)" fill="#d1ccbd"/>
      </g>
    </g>
  </g>
</svg>
